<svg width="48" height="48" viewBox="0 0 48 48" fill="none" xmlns="http://www.w3.org/2000/svg">
<path d="M48 0H0V48H48V0Z" fill="#D72B6C"/>
<path fill-rule="evenodd" clip-rule="evenodd" d="M13.1559 29.313H20.3721V27.494H13.1559V29.313ZM13.1559 22.0224H18.5681V20.2033H13.1559V22.0224ZM13.1559 25.7313H23.9803V23.9123H13.1559V25.7313ZM22.1004 34.781H11.4042V18.217H22.1004V22.0478H23.9045V17.3075C23.9045 16.8036 23.5004 16.3979 23.0025 16.3979H10.5021C10.0042 16.3979 9.6001 16.8036 9.6001 17.3075V35.6905C9.6001 36.1925 10.0042 36.6 10.5021 36.6H23.0025C23.5004 36.6 23.9045 36.1925 23.9045 35.6905V27.5049H22.1004V34.781ZM38.4001 22.0897C38.4001 25.8969 35.5082 27.3284 33.9802 27.5522L25.7843 27.5613V25.7423H33.8485C34.009 25.7059 36.596 25.202 36.596 22.0897C36.596 20.4926 35.7373 19.634 33.8124 19.3066C33.3487 19.2283 33.024 18.8045 33.0637 18.3334C33.0637 18.3261 33.0655 18.317 33.0655 18.3079C33.0258 16.9364 32.2068 16.5144 31.8496 16.3943C31.2163 16.1815 30.5524 16.3616 30.197 16.8454C30.0004 17.1128 29.6648 17.2474 29.3401 17.2001C29.0118 17.1492 28.7358 16.9218 28.6257 16.6053C28.3425 15.8049 27.9221 15.2774 27.334 14.6844C26.6412 13.9914 24.7398 12.498 22.1022 13.6167C21.4095 13.9095 20.778 14.4789 20.2819 15.2629L18.7629 14.2806C19.4575 13.1874 20.3703 12.3779 21.4041 11.9395C23.9297 10.8681 26.6268 11.412 28.6095 13.3966C29.0226 13.8131 29.4357 14.2752 29.7911 14.8627C30.5687 14.4498 31.523 14.3697 32.416 14.6662C33.4588 15.0155 34.5629 15.9778 34.8172 17.6622C37.756 18.4243 38.4001 20.458 38.4001 22.0897Z" fill="white"/>
</svg>
