<?xml version="1.0" encoding="utf-8"?>
<!-- Generator: Adobe Illustrator 19.0.0, SVG Export Plug-In . SVG Version: 6.00 Build 0)  -->
<svg version="1.1" id="Layer_1" xmlns="http://www.w3.org/2000/svg" xmlns:xlink="http://www.w3.org/1999/xlink" x="0px" y="0px"
	 viewBox="0 0 500 500" style="enable-background:new 0 0 500 500;" xml:space="preserve">
<style type="text/css">
	.st0{fill:#B7CA9D;}
	.st1{fill:#3C4929;}
	.st2{fill:#759C3E;}
	.st3{fill:#4B612C;}
</style>
<g id="XMLID_1_">
	<polyline id="XMLID_3_" class="st0" points="119.4,319.9 121.9,322.8 250.7,359.3 251.3,336.7 161.1,314.1 156.7,312.5 
		119.4,319.9 	"/>
	<polyline id="XMLID_4_" class="st0" points="380.6,319.9 249.1,363.8 248.7,336.7 338.9,314.1 342.8,309.6 380.6,319.9 	"/>
	<polyline id="XMLID_5_" class="st1" points="248.7,164.9 338.9,185.9 378.5,184 380.6,180.1 255,134.8 248.7,164.9 	"/>
	<polyline id="XMLID_6_" class="st2" points="161.1,314.1 119.4,319.9 118.2,315.6 118.2,184.6 119.4,180.1 157.1,182.9 
		161.1,185.9 161.1,314.1 	"/>
	<polyline id="XMLID_7_" class="st1" points="251.3,164.9 161.1,185.9 119.4,180.1 121,177.6 250.7,140.7 251.3,164.9 	"/>
	<path id="XMLID_10_" class="st3" d="M249.8,67.5l-149.7,75.6l0.1,213.9l149.7,75.5l2.2-3.4V71.9L249.8,67.5z M206,345.9l-86.6-26
		V180.1l86.6-26V345.9z"/>
	<polyline id="XMLID_11_" class="st3" points="338.9,314.1 380.6,319.9 382.9,315.8 382.9,184 380.6,180.1 338.9,185.9 338.9,314.1 
			"/>
	<path id="XMLID_14_" class="st2" d="M249.8,432.5l150-75.5l0.1-213.9L249.8,67.5V432.5z M294,154.1l86.6,26v139.9l-86.6,26V154.1z"
		/>
</g>
</svg>
